<?xml version="1.0" encoding="utf-8"?>
<!-- Generator: Adobe Illustrator 25.4.1, SVG Export Plug-In . SVG Version: 6.00 Build 0)  -->
<svg version="1.1" id="Layer_1" xmlns="http://www.w3.org/2000/svg" xmlns:xlink="http://www.w3.org/1999/xlink" x="0px" y="0px"
	 viewBox="0 0 459.6 533.3" style="enable-background:new 0 0 459.6 533.3;" xml:space="preserve">
<style type="text/css">
	.st0{fill-rule:evenodd;clip-rule:evenodd;fill:#2F2D2E;}
	.st1{fill:#FFFFFF;}
	.st2{fill-rule:evenodd;clip-rule:evenodd;fill:#FFFFFF;}
</style>
<g transform="matrix(1.33333 0 0 -1.33333 -278.052 902.584)">
	<path class="st0" d="M521.9,676.9H239.8c-22.9,0-31.3-8.4-31.3-31.3v-276c0-2.6,0.1-5,0.3-7.2c0.5-5,0.6-9.8,5.3-15.3
		c0.5-0.5,5.2-4.1,5.2-4.1c2.5-1.3,4.3-2.2,7.2-3.3l138.9-58.2c7.2-3.3,10.2-4.6,15.5-4.5v0h0c5.2-0.1,8.3,1.2,15.5,4.5l138.9,58.2
		c2.9,1.2,4.6,2.1,7.2,3.3c0,0,4.7,3.5,5.2,4.1c4.6,5.5,4.7,10.3,5.3,15.3c0.2,2.2,0.3,4.6,0.3,7.2v276
		C553.2,668.5,544.8,676.9,521.9,676.9"/>
	<path class="st1" d="M503,399.4l-0.1-0.6l-0.1-0.7l-0.1-0.6l-0.2-0.6l-0.1-0.6l-0.2-0.6L502,395l-0.3-0.5l-0.3-0.6l-0.3-0.5
		l-0.3-0.5l-0.4-0.5l-0.3-0.5l-0.4-0.4l-0.4-0.4l-0.4-0.4l-0.5-0.4l-0.4-0.4l-0.5-0.4l-0.5-0.3l-0.5-0.4l-0.6-0.3l-0.6-0.3l-0.6-0.3
		l-0.6-0.3l-0.6-0.3l-0.6-0.2l-0.6-0.2l-0.6-0.2l-0.6-0.1l-0.6-0.1l-0.6-0.1l-0.6-0.1l-0.6-0.1l-0.6-0.1l-0.6-0.1l-0.7-0.1l-0.6-0.1
		h-2.7l-0.6,0.1h-0.7l-0.6,0.1l-0.6,0.1l-0.7,0.1l-0.6,0.1l-0.6,0.1l-0.6,0.1l-0.6,0.1l-0.6,0.1l-0.6,0.1l-0.6,0.2l-0.6,0.1
		l-0.6,0.2l-0.6,0.2l-0.6,0.3l-0.6,0.2l-0.6,0.2l-0.6,0.3l-0.6,0.3l-0.6,0.3l-0.6,0.3l-0.6,0.3l-0.6,0.3l-0.5,0.3l-0.6,0.3l-0.5,0.3
		l-0.5,0.3l-0.5,0.4l-0.5,0.4l-0.5,0.4l-0.5,0.4l-0.4,0.4l-0.5,0.4l0.4,0.5l0.4,0.4l0.4,0.5l0.4,0.5l0.4,0.4l0.4,0.5l0.4,0.5
		l0.4,0.4l0.4,0.5l0.4,0.4l0.4,0.5l0.4,0.5l0.4,0.4l0.4,0.5l0.4,0.5l0.4,0.4l0.4,0.5l0.5-0.4l0.6-0.4l0.5-0.4l0.6-0.4l0.5-0.3
		l0.6-0.4l0.5-0.3l0.6-0.3l0.5-0.3l0.6-0.3l0.6-0.3l0.6-0.3l0.6-0.2l0.6-0.3l0.6-0.2l0.6-0.2l0.6-0.2l0.6-0.1l0.6-0.1l0.6-0.1
		l0.7-0.1l0.6-0.1h0.6l0.7-0.1h1.4l0.7,0.1l0.6,0.1l0.6,0.1l0.6,0.1l0.5,0.2l0.4,0.3l0.5,0.4l0.4,0.4l0.3,0.5l0.2,0.6l0.1,0.6v0.1
		l-0.1,0.8l-0.3,0.6l-0.3,0.4l-0.4,0.4l-0.5,0.4l-0.5,0.3l-0.6,0.3l-0.6,0.3l-0.8,0.3l-0.4,0.1l-0.5,0.1l-0.6,0.2l-0.6,0.1l-0.6,0.2
		l-0.6,0.1l-0.7,0.2l-0.6,0.1l-0.7,0.2l-0.6,0.1l-0.6,0.2l-0.6,0.1l-0.6,0.2l-0.6,0.2l-0.6,0.1L477,406l-0.6,0.2l-0.6,0.2l-0.7,0.3
		l-0.6,0.3l-0.6,0.3l-0.6,0.3l-0.6,0.3l-0.6,0.3l-0.5,0.3l-0.6,0.3l-0.5,0.4l-0.5,0.3l-0.4,0.4l-0.4,0.4l-0.4,0.4l-0.4,0.4l-0.4,0.4
		l-0.3,0.4l-0.3,0.5l-0.3,0.6l-0.3,0.4l-0.2,0.5l-0.2,0.6l-0.2,0.5l-0.1,0.6l-0.1,0.6l-0.1,0.6l-0.1,0.6l-0.1,0.7v1.5l0.1,0.6
		l0.1,0.6l0.1,0.6l0.1,0.6l0.1,0.6l0.2,0.6l0.1,0.6l0.3,0.6l0.3,0.6l0.3,0.6l0.3,0.6l0.3,0.6l0.4,0.5l0.4,0.5l0.4,0.5l0.4,0.4
		l0.4,0.5l0.5,0.4l0.4,0.3l0.5,0.4l0.5,0.4l0.5,0.3l0.6,0.3l0.6,0.3l0.6,0.3l0.6,0.3l0.6,0.2l0.6,0.3l0.6,0.2l0.5,0.1l0.6,0.1
		l0.6,0.1l0.6,0.1l0.6,0.1l0.6,0.1l0.6,0.1l0.6,0.1l0.6,0.1h2.7l0.7-0.1l0.7-0.1h0.6l0.7-0.1l0.6-0.1l0.7-0.1l0.6-0.1l0.6-0.1
		l0.6-0.1l0.6-0.1l0.6-0.1l0.6-0.2l0.6-0.2l0.6-0.1l0.6-0.3l0.6-0.2l0.6-0.3l0.6-0.3l0.6-0.3l0.6-0.3l0.5-0.3l0.6-0.3l0.6-0.3
		l0.5-0.3l0.6-0.4l0.5-0.3l0.5-0.4l0.5-0.4l0.5-0.4l-0.4-0.5l-0.3-0.5l-0.4-0.5l-0.4-0.5l-0.4-0.6l-0.3-0.5l-0.4-0.5l-0.4-0.5
		l-0.3-0.5l-0.4-0.5l-0.4-0.5l-0.3-0.5l-0.4-0.6l-0.4-0.5l-0.4-0.5l-0.3-0.5l-0.4-0.5l-0.5,0.4l-0.6,0.3l-0.5,0.3l-0.5,0.4l-0.6,0.3
		l-0.5,0.3l-0.6,0.3l-0.5,0.3l-0.6,0.3l-0.5,0.3l-0.6,0.2l-0.5,0.3l-0.7,0.2l-0.6,0.2l-0.6,0.2l-0.6,0.1l-0.6,0.1l-0.6,0.1l-0.6,0.1
		l-0.6,0.1l-0.6,0.1h-1.4l-0.7-0.1l-0.6-0.1l-0.6-0.1l-0.5-0.3l-0.4-0.3l-0.6-0.5l-0.4-0.6l-0.2-0.6l-0.1-0.6v-0.1l0.1-0.8l0.3-0.7
		l0.3-0.4l0.4-0.4l0.6-0.3l0.5-0.3l0.6-0.3l0.7-0.3l0.8-0.3l0.5-0.1l0.5-0.2l0.6-0.1l0.6-0.2l0.6-0.1l0.7-0.2l0.7-0.2l0.7-0.2
		l0.7-0.1l0.6-0.2l0.7-0.2l0.6-0.1l0.6-0.2l0.6-0.2l0.6-0.2l0.6-0.2l0.6-0.2l0.6-0.2l0.7-0.3l0.6-0.3l0.6-0.3l0.6-0.3l0.6-0.3
		l0.6-0.3l0.5-0.3l0.5-0.4l0.5-0.3l0.5-0.4l0.5-0.4l0.4-0.5l0.4-0.4l0.4-0.5l0.4-0.6l0.3-0.5l0.3-0.6l0.3-0.5l0.2-0.6l0.2-0.6
		l0.1-0.6l0.1-0.6l0.1-0.6l0.1-0.6l0.1-0.7v-1.5L503,399.4z M458.6,386.7h-36.3V433h36.6v-10.5h-24.5V415h22.1v-9.9h-22.1v-7.9h24.9
		v-10.5H458.6z M412.3,386.7h-11.6v27.4l-0.3-0.5L400,413l-0.3-0.5l-0.4-0.5l-0.3-0.6l-0.4-0.5l-0.3-0.5l-0.3-0.6l-0.4-0.5l-0.3-0.5
		l-0.4-0.5l-0.3-0.6l-0.4-0.5l-0.3-0.5l-0.3-0.6l-0.4-0.5l-0.3-0.5l-0.4-0.6l-0.3-0.5l-0.4-0.5l-0.3-0.6l-0.3-0.5l-0.4-0.5l-0.3-0.6
		l-0.4-0.5l-0.3-0.5l-0.4-0.5l-0.3-0.6l-0.3-0.5l-0.4-0.5l-0.3-0.6l-0.4-0.5l-0.3-0.5l-0.4-0.6l-0.3-0.5h-0.3l-0.4,0.6l-0.3,0.5
		l-0.4,0.6l-0.3,0.5l-0.4,0.6l-0.3,0.5l-0.4,0.6l-0.3,0.5l-0.4,0.6l-0.3,0.5l-0.4,0.6l-0.3,0.5l-0.4,0.6l-0.3,0.5l-0.4,0.6l-0.3,0.5
		l-0.4,0.6l-0.4,0.5l-0.3,0.6l-0.4,0.5L381,407l-0.4,0.5l-0.3,0.6l-0.4,0.5l-0.3,0.6l-0.4,0.5l-0.3,0.6l-0.4,0.5l-0.3,0.6l-0.4,0.5
		l-0.3,0.6l-0.4,0.5l-0.3,0.6l-0.4,0.5v-27.3h-12V433h13l0.3-0.5l0.3-0.6l0.4-0.5l0.3-0.6l0.3-0.5l0.3-0.6l0.3-0.5l0.4-0.6l0.3-0.5
		l0.3-0.5l0.3-0.6l0.3-0.5l0.4-0.6l0.3-0.5l0.3-0.6l0.3-0.5l0.4-0.5l0.3-0.6l0.3-0.5l0.3-0.6l0.3-0.5l0.4-0.6l0.3-0.5l0.3-0.6
		l0.3-0.5l0.3-0.5l0.4-0.6l0.3-0.5l0.3-0.6l0.3-0.5l0.3-0.6l0.4-0.5l0.3-0.6l0.3-0.5l0.3,0.5l0.3,0.6l0.4,0.5l0.3,0.6l0.3,0.5
		l0.3,0.6l0.4,0.5l0.3,0.6l0.3,0.5l0.3,0.5l0.4,0.6l0.3,0.5l0.3,0.6l0.3,0.5l0.4,0.6l0.3,0.5l0.3,0.6l0.3,0.5l0.3,0.5l0.4,0.6
		l0.3,0.5l0.3,0.6l0.3,0.5l0.4,0.6l0.3,0.5l0.3,0.5l0.3,0.6l0.4,0.5l0.3,0.6l0.3,0.5l0.3,0.6l0.4,0.5l0.3,0.6l0.3,0.5h13v-46.3
		L412.3,386.7z M338.7,405.8l-0.2,0.6l-0.3,0.6l-0.3,0.6l-0.2,0.6l-0.3,0.6l-0.3,0.6l-0.2,0.6l-0.3,0.6l-0.2,0.6l-0.2,0.6l-0.3,0.6
		l-0.2,0.6l-0.3,0.6l-0.3,0.6l-0.2,0.6l-0.3,0.6l-0.3,0.6l-0.2,0.6l-0.3,0.6l-0.3,0.6l-0.2,0.6l-0.3,0.6l-0.3-0.6l-0.2-0.6L333,417
		l-0.3-0.6l-0.2-0.6l-0.3-0.6l-0.3-0.6l-0.3-0.6l-0.2-0.6l-0.3-0.6l-0.3-0.6l-0.2-0.6l-0.3-0.6l-0.3-0.6l-0.2-0.6l-0.3-0.6l-0.3-0.6
		l-0.3-0.6l-0.2-0.6L329,407l-0.3-0.6l-0.2-0.6l-0.3-0.6H339L338.7,405.8z M358.6,386.7h-12.4l-0.3,0.6l-0.2,0.6l-0.3,0.6l-0.3,0.6
		l-0.2,0.6l-0.3,0.6l-0.3,0.6l-0.2,0.6l-0.3,0.6l-0.3,0.6l-0.2,0.6l-0.3,0.6l-0.3,0.6l-0.2,0.6l-0.3,0.6h-18.2l-0.3-0.6l-0.2-0.6
		l-0.3-0.6l-0.3-0.6l-0.2-0.6l-0.3-0.6l-0.3-0.6l-0.2-0.6l-0.3-0.6l-0.3-0.6l-0.2-0.6l-0.3-0.6l-0.3-0.6l-0.2-0.6l-0.3-0.6h-12.8
		l0.2,0.6l0.3,0.6l0.3,0.6l0.3,0.6l0.2,0.6l0.3,0.6l0.3,0.6l0.3,0.6l0.3,0.6l0.3,0.6l0.3,0.6l0.3,0.6l0.2,0.6l0.3,0.6l0.2,0.6
		l0.3,0.6l0.3,0.6l0.3,0.6l0.3,0.6l0.3,0.6l0.2,0.6l0.2,0.6l0.3,0.6l0.3,0.6l0.3,0.6l0.3,0.6l0.3,0.6l0.3,0.6l0.2,0.6l0.3,0.6
		l0.3,0.6l0.3,0.6l0.3,0.6l0.3,0.6l0.3,0.6l0.3,0.6l0.2,0.6l0.3,0.6l0.3,0.6l0.3,0.6l0.3,0.6l0.3,0.6l0.3,0.6l0.3,0.6l0.2,0.6
		l0.3,0.6l0.3,0.6l0.3,0.6l0.3,0.6l0.3,0.6l0.3,0.6l0.2,0.6l0.2,0.6l0.3,0.6l0.3,0.6l0.3,0.6l0.3,0.6l0.3,0.6l0.3,0.6l0.3,0.6
		l0.2,0.6l0.3,0.6l0.3,0.6l0.3,0.6l0.3,0.6l0.2,0.6l0.3,0.6l0.3,0.6l0.2,0.6l0.3,0.6l0.3,0.6l0.3,0.6l0.2,0.6l0.3,0.6l0.3,0.6
		l0.3,0.6l0.2,0.6l0.3,0.6l0.3,0.6l0.2,0.6h11.7l0.3-0.6l0.3-0.6l0.3-0.6l0.3-0.6l0.2-0.6l0.2-0.6l0.3-0.6l0.3-0.6l0.3-0.6l0.2-0.6
		l0.3-0.6l0.3-0.6l0.2-0.6l0.3-0.6l0.3-0.6l0.3-0.6l0.2-0.6l0.3-0.6l0.3-0.6l0.2-0.6l0.2-0.6l0.3-0.6l0.3-0.6l0.3-0.6l0.3-0.6
		l0.3-0.6l0.2-0.6l0.3-0.6l0.2-0.6l0.3-0.6l0.3-0.6l0.3-0.6l0.3-0.6l0.3-0.6l0.3-0.6l0.3-0.6l0.2-0.6l0.3-0.6l0.3-0.6l0.3-0.6
		l0.3-0.6l0.3-0.6l0.3-0.6l0.3-0.6l0.2-0.6l0.3-0.6l0.3-0.6l0.3-0.6l0.3-0.6l0.3-0.6l0.3-0.6l0.3-0.6l0.2-0.6l0.3-0.6l0.3-0.6
		l0.3-0.6l0.2-0.6l0.3-0.6l0.3-0.6l0.3-0.6l0.2-0.6l0.3-0.6l0.3-0.6l0.3-0.6l0.3-0.6l0.3-0.6l0.3-0.6l0.3-0.6l0.2-0.6l0.3-0.6
		l0.2-0.6l0.3-0.6l0.3-0.6l0.3-0.6l0.3-0.6l0.3-0.6l0.2-0.6l0.2-0.6l0.3-0.6l0.3-0.6H358.6z M303.1,392.6l-0.5-0.4l-0.4-0.3
		l-0.5-0.4l-0.5-0.3l-0.5-0.4l-0.5-0.3l-0.5-0.3l-0.6-0.3l-0.6-0.3l-0.6-0.3l-0.6-0.3l-0.6-0.3l-0.6-0.3l-0.6-0.3l-0.6-0.3l-0.6-0.3
		l-0.6-0.2l-0.6-0.2l-0.6-0.2l-0.6-0.2l-0.6-0.2l-0.6-0.1l-0.6-0.1l-0.6-0.1l-0.6-0.1l-0.6-0.1l-0.7-0.1L287,386l-0.7-0.1l-0.6-0.1
		l-0.7-0.1h-2.7l-0.6,0.1l-0.7,0.1l-0.6,0.1l-0.6,0.1l-0.6,0.1l-0.6,0.1l-0.6,0.1l-0.6,0.1l-0.6,0.1l-0.6,0.2l-0.6,0.1l-0.6,0.2
		l-0.6,0.3l-0.6,0.2l-0.6,0.3l-0.6,0.3l-0.6,0.3l-0.6,0.3l-0.6,0.3l-0.5,0.3l-0.6,0.3l-0.5,0.3l-0.5,0.3l-0.5,0.4l-0.5,0.4l-0.5,0.4
		l-0.4,0.4l-0.4,0.4l-0.4,0.4l-0.4,0.4l-0.4,0.4l-0.4,0.4l-0.4,0.4l-0.4,0.5l-0.4,0.4l-0.3,0.5l-0.4,0.5l-0.3,0.5l-0.3,0.5l-0.3,0.6
		l-0.3,0.5l-0.3,0.6l-0.3,0.6l-0.3,0.6l-0.3,0.6l-0.2,0.5l-0.3,0.6l-0.1,0.6l-0.2,0.6l-0.1,0.6l-0.2,0.6l-0.1,0.6l-0.1,0.6l-0.1,0.6
		l-0.1,0.6l-0.1,0.6l-0.1,0.6l-0.1,0.6v2.1l0.1,0.7v0.6l0.1,0.6l0.1,0.7l0.1,0.6l0.1,0.6l0.1,0.6l0.2,0.6l0.1,0.6l0.2,0.6l0.2,0.6
		l0.2,0.6l0.3,0.6l0.3,0.6l0.3,0.6l0.3,0.6l0.2,0.6l0.3,0.6l0.3,0.5l0.3,0.5l0.3,0.5l0.3,0.5l0.4,0.5l0.4,0.5l0.4,0.5l0.4,0.4
		l0.4,0.4l0.4,0.4l0.4,0.4l0.4,0.4l0.4,0.4l0.5,0.4l0.4,0.4l0.5,0.4l0.5,0.3l0.5,0.4l0.5,0.3l0.5,0.3l0.6,0.3l0.6,0.3l0.6,0.3
		l0.6,0.3l0.6,0.3l0.6,0.3l0.5,0.2l0.6,0.2l0.6,0.3l0.6,0.1l0.6,0.2l0.6,0.1l0.6,0.2l0.6,0.1l0.6,0.1l0.6,0.1l0.6,0.1l0.6,0.1
		l0.6,0.1l0.6,0.1h2.7l0.7-0.1l0.7-0.1h0.6l0.6-0.1l0.7-0.1l0.6-0.1l0.6-0.1l0.6-0.1l0.6-0.1l0.6-0.1l0.6-0.1l0.6-0.2l0.6-0.1
		l0.5-0.2l0.6-0.2l0.6-0.3l0.6-0.3l0.6-0.3l0.6-0.3l0.6-0.3l0.5-0.3l0.6-0.3l0.5-0.3l0.6-0.3l0.5-0.4l0.5-0.3l0.5-0.4l0.5-0.4
		l0.5-0.4l0.5-0.4l-0.4-0.5l-0.4-0.4l-0.4-0.5l-0.4-0.5l-0.4-0.5l-0.4-0.4l-0.4-0.5l-0.4-0.5l-0.4-0.4l-0.4-0.5l-0.4-0.5l-0.4-0.5
		l-0.4-0.4l-0.4-0.5l-0.4-0.5l-0.4-0.5l-0.4-0.4l-0.4-0.5l-0.5,0.4l-0.5,0.4l-0.5,0.3l-0.5,0.4l-0.5,0.3l-0.5,0.3l-0.5,0.3l-0.6,0.3
		l-0.5,0.3l-0.5,0.3L289,422l-0.6,0.2l-0.6,0.2l-0.6,0.1l-0.6,0.1l-0.6,0.1l-0.6,0.1l-0.7,0.1l-0.7,0.1h-1.3l-0.6-0.1l-0.6-0.1
		l-0.6-0.1l-0.6-0.1l-0.6-0.2l-0.6-0.2l-0.6-0.3l-0.6-0.3l-0.5-0.3L277,421l-0.5-0.3l-0.4-0.4l-0.4-0.4l-0.4-0.4l-0.4-0.4l-0.4-0.4
		l-0.4-0.5l-0.3-0.4l-0.3-0.5l-0.3-0.6l-0.3-0.5l-0.3-0.6l-0.2-0.6l-0.3-0.6l-0.2-0.6l-0.1-0.6l-0.1-0.6l-0.1-0.7l-0.1-0.6l-0.1-0.6
		v-1.5l0.1-0.6l0.1-0.6l0.1-0.6l0.1-0.6l0.1-0.6l0.1-0.6l0.2-0.6l0.2-0.5l0.3-0.6l0.3-0.6l0.3-0.6l0.3-0.5l0.3-0.5l0.4-0.5l0.4-0.4
		l0.4-0.4l0.4-0.4l0.4-0.4l0.5-0.4l0.5-0.4l0.5-0.3l0.5-0.3l0.6-0.3l0.6-0.3l0.6-0.3l0.6-0.2l0.6-0.2l0.6-0.1l0.6-0.1l0.6-0.1
		l0.7-0.1h1.5l0.7,0.1l0.7,0.1l0.6,0.1l0.6,0.1l0.6,0.1l0.6,0.2l0.6,0.1l0.6,0.3l0.5,0.3l0.6,0.3l0.4,0.3l0.5,0.3v5.8h-9.3v9.3h20.9
		V393L303.1,392.6z M282.7,537.9h27.5v21.2h-27.5v43.4h28.6v21.3h-51.9V470.4h52.3v21.3h-29V537.9z M479.5,533.3v-34.6
		c0-6.1-2.8-9-8.7-9h-4.4c-6.1,0-8.9,2.8-8.9,9v96.8c0,6.1,2.8,9,8.9,9h3.9c5.9,0,8.7-2.8,8.7-9v-30H502v31.3
		c0,19.1-9.2,28.3-28.1,28.3h-11.3c-19,0-28.3-9.4-28.3-28.5v-99c0-19.1,9.4-28.5,28.3-28.5H474c19,0,28.3,9.4,28.3,28.5v35.7H479.5
		z M398.5,470.4h23.3v153.4h-23.3V470.4z M364.6,555.6c0-6.1-2.8-9-8.7-9h-9.6v56.5h9.6c5.9,0,8.7-2.8,8.7-9V555.6z M359.6,623.8
		H323V470.4h23.3v55.7h13.3c19,0,28.3,9.4,28.3,28.5v40.8C388,614.4,378.6,623.8,359.6,623.8"/>
	<path class="st2" d="M314.4,331.7H448l-68.2-22.5L314.4,331.7z"/>
</g>
</svg>
